<?xml version="1.0" encoding="UTF-8"?>
<svg version="1.1" xmlns="http://www.w3.org/2000/svg" width="2400" height="1200">
<path d="M0 0 C792 0 1584 0 2400 0 C2400 396 2400 792 2400 1200 C1608 1200 816 1200 0 1200 C0 804 0 408 0 0 Z " fill="#CF142B" transform="translate(0,0)"/>
<path d="M0 0 C356.4 0 712.8 0 1080 0 C1080 158.4 1080 316.8 1080 480 C723.6 480 367.2 480 0 480 C0 321.6 0 163.2 0 0 Z " fill="#FEFEFE" transform="translate(1320,720)"/>
<path d="M0 0 C356.4 0 712.8 0 1080 0 C1080 158.4 1080 316.8 1080 480 C723.6 480 367.2 480 0 480 C0 321.6 0 163.2 0 0 Z " fill="#FEFEFE" transform="translate(0,720)"/>
<path d="M0 0 C356.4 0 712.8 0 1080 0 C1080 158.4 1080 316.8 1080 480 C723.6 480 367.2 480 0 480 C0 321.6 0 163.2 0 0 Z " fill="#FEFEFE" transform="translate(1320,0)"/>
<path d="M0 0 C356.4 0 712.8 0 1080 0 C1080 158.4 1080 316.8 1080 480 C723.6 480 367.2 480 0 480 C0 321.6 0 163.2 0 0 Z " fill="#FEFEFE" transform="translate(0,0)"/>
<path d="M0 0 C21.82378532 10.33758252 21.82378532 10.33758252 32.45747662 15.66721439 C33.69380144 16.28500513 34.93021405 16.9026202 36.16670421 17.52007994 C39.51195082 19.19119501 42.85597359 20.86474526 46.19977315 22.53875348 C49.85740703 24.36930961 53.51622081 26.19750486 57.17487699 28.02601665 C63.56930571 31.22220061 69.96299906 34.41985157 76.35619736 37.61849594 C85.86247457 42.37466716 95.36991034 47.12851894 104.87757585 51.88191419 C120.87530346 59.88012284 136.8721035 67.88018495 152.86836815 75.88131905 C168.69720273 83.79869905 184.52645368 91.71524563 200.35625648 99.63068962 C201.34202934 100.12361042 202.32780219 100.61653121 203.34344695 101.12438901 C208.35008284 103.62787612 213.35672612 106.13134845 218.36337224 108.63481509 C253.78723836 126.3477972 289.21017755 144.06263224 324.63256836 161.77856445 C359.03606879 178.9849099 393.43999108 196.19041138 427.84448242 213.39477539 C429.43638564 214.19082564 429.43638564 214.19082564 431.06044852 215.00295772 C441.7185487 220.33266709 452.37665743 225.66235936 463.03477243 230.99203911 C484.74485492 241.84834831 506.45488033 252.70477165 528.16487122 263.56126404 C529.16297082 264.06038249 530.16107042 264.55950093 531.18941547 265.07374418 C597.79390009 298.38058361 664.39705447 331.69008302 731 365 C731 365.33 731 365.66 731 366 C489.77 366 248.54 366 0 366 C0 245.22 0 124.44 0 0 Z " fill="#00247D" transform="translate(1400,834)"/>
<path d="M0 0 C0 120.78 0 241.56 0 366 C-241.23 366 -482.46 366 -731 366 C-727.88614786 363.66461089 -725.27670878 362.01341352 -721.84922343 360.29983789 C-720.7998296 359.77276556 -719.75043576 359.24569324 -718.66924211 358.70264903 C-717.51528123 358.12815267 -716.36132034 357.55365632 -715.17239094 356.96175098 C-713.92972043 356.33952438 -712.68722551 355.71694703 -711.44489071 355.09405044 C-708.01547851 353.37585273 -704.58358053 351.66267259 -701.15127221 349.95026923 C-697.423371 348.08929742 -693.69778635 346.22369846 -689.9719097 344.35867757 C-683.43661826 341.08818449 -676.89983924 337.82068047 -670.36208725 334.55510902 C-660.64059756 329.69926448 -650.92139425 324.83885736 -641.2026522 319.97751635 C-624.85519829 311.80064842 -608.50585307 303.62756887 -592.15540504 295.45668983 C-575.96120179 287.36389082 -559.76773758 279.26961629 -543.57529259 271.17329979 C-542.56922491 270.67026213 -541.56315723 270.16722447 -540.52660265 269.64894324 C-536.44300987 267.60712639 -532.35942203 265.56529967 -528.27584093 263.52345947 C-489.94826355 244.35921747 -451.61851565 225.19932046 -413.287681 206.04159434 C-379.20246643 189.00580114 -345.11873201 171.96705042 -311.03637695 154.92553711 C-308.84754616 153.83110151 -306.65871536 152.73666593 -304.46988455 151.64223037 C-302.84674036 150.83064301 -302.84674036 150.83064301 -301.19080537 150.00265994 C-295.74414559 147.27927966 -290.29748376 144.55590345 -284.85081959 141.83253193 C-283.77637114 141.29529935 -282.7019227 140.75806677 -281.59491521 140.20455441 C-253.14715236 125.98049059 -224.69840983 111.75838649 -196.24933261 97.53695172 C-194.73224101 96.77857112 -194.73224101 96.77857112 -193.18450109 96.00486971 C-189.11710552 93.97161606 -185.04970992 91.93836245 -180.98230913 89.90511921 C-166.80728698 82.81919048 -152.63259683 75.73259799 -138.45811924 68.64558001 C-120.19831534 59.51597605 -101.9378371 50.38772309 -83.67618016 41.26182619 C-74.00875728 36.4306801 -64.34188421 31.5984378 -54.67579033 26.76463319 C-48.23172258 23.54223387 -41.78693529 20.32127697 -35.34154155 17.1015307 C-31.66097905 15.2628845 -27.98074457 13.42358944 -24.30137096 11.58256511 C-20.96189117 9.91162879 -17.62151539 8.24249888 -14.28037877 6.57487807 C-12.4968995 5.6841071 -10.71441155 4.7913522 -8.93195114 3.89854422 C-7.89006785 3.37898245 -6.84818457 2.85942069 -5.77472907 2.32411462 C-4.86984455 1.87181811 -3.96496002 1.41952159 -3.03265475 0.95351912 C-1 0 -1 0 0 0 Z " fill="#00247D" transform="translate(1000,834)"/>
<path d="M0 0 C241.23 0 482.46 0 731 0 C727.88614786 2.33538911 725.27670878 3.98658648 721.84922343 5.70016211 C720.7998296 6.22723444 719.75043576 6.75430676 718.66924211 7.29735097 C717.51528123 7.87184733 716.36132034 8.44634368 715.17239094 9.03824902 C713.92972043 9.66047562 712.68722551 10.28305297 711.44489071 10.90594956 C708.01547851 12.62414727 704.58358053 14.33732741 701.15127221 16.04973077 C697.423371 17.91070258 693.69778635 19.77630154 689.9719097 21.64132243 C683.43661826 24.91181551 676.89983924 28.17931953 670.36208725 31.44489098 C660.64059756 36.30073552 650.92139425 41.16114264 641.2026522 46.02248365 C624.85519829 54.19935158 608.50585307 62.37243113 592.15540504 70.54331017 C575.96120179 78.63610918 559.76773758 86.73038371 543.57529259 94.82670021 C542.56922491 95.32973787 541.56315723 95.83277553 540.52660265 96.35105676 C536.44300987 98.39287361 532.35942203 100.43470033 528.27584093 102.47654053 C489.94826355 121.64078253 451.61851565 140.80067954 413.287681 159.95840566 C379.20246643 176.99419886 345.11873201 194.03294958 311.03637695 211.07446289 C308.84754616 212.16889849 306.65871536 213.26333407 304.46988455 214.35776963 C302.84674036 215.16935699 302.84674036 215.16935699 301.19080537 215.99734006 C295.74414559 218.72072034 290.29748376 221.44409655 284.85081959 224.16746807 C283.77637114 224.70470065 282.7019227 225.24193323 281.59491521 225.79544559 C253.14715236 240.01950941 224.69840983 254.24161351 196.24933261 268.46304828 C195.23793821 268.96863534 194.22654381 269.47422241 193.18450109 269.99513029 C189.11710552 272.02838394 185.04970992 274.06163755 180.98230913 276.09488079 C166.80728698 283.18080952 152.63259683 290.26740201 138.45811924 297.35441999 C120.19831534 306.48402395 101.9378371 315.61227691 83.67618016 324.73817381 C74.00875728 329.5693199 64.34188421 334.4015622 54.67579033 339.23536681 C48.23172258 342.45776613 41.78693529 345.67872303 35.34154155 348.8984693 C31.66097905 350.7371155 27.98074457 352.57641056 24.30137096 354.41743489 C20.96189117 356.08837121 17.62151539 357.75750112 14.28037877 359.42512193 C12.4968995 360.3158929 10.71441155 361.2086478 8.93195114 362.10145578 C7.89006785 362.62101755 6.84818457 363.14057931 5.77472907 363.67588538 C4.86984455 364.12818189 3.96496002 364.58047841 3.03265475 365.04648088 C1 366 1 366 0 366 C0 245.22 0 124.44 0 0 Z " fill="#00247D" transform="translate(1400,0)"/>
<path d="M0 0 C241.23 0 482.46 0 731 0 C731 120.78 731 241.56 731 366 C709.17621468 355.66241748 709.17621468 355.66241748 698.54252338 350.33278561 C697.30619856 349.71499487 696.06978595 349.0973798 694.83329579 348.47992006 C691.48804918 346.80880499 688.14402641 345.13525474 684.80022685 343.46124652 C681.14259297 341.63069039 677.48377919 339.80249514 673.82512301 337.97398335 C667.43069429 334.77779939 661.03700094 331.58014843 654.64380264 328.38150406 C645.13752543 323.62533284 635.63008966 318.87148106 626.12242415 314.11808581 C610.12469654 306.11987716 594.1278965 298.11981505 578.13163185 290.11868095 C562.30279727 282.20130095 546.47354632 274.28475437 530.64374352 266.36931038 C529.65797066 265.87638958 528.67219781 265.38346879 527.65655305 264.87561099 C522.64991716 262.37212388 517.64327388 259.86865155 512.63662776 257.36518491 C477.21276164 239.6522028 441.78982245 221.93736776 406.36743164 204.22143555 C371.96393121 187.0150901 337.56000892 169.80958862 303.15551758 152.60522461 C301.56361436 151.80917436 301.56361436 151.80917436 299.93955148 150.99704228 C289.2814513 145.66733291 278.62334257 140.33764064 267.96522757 135.00796089 C246.25514508 124.15165169 224.54511967 113.29522835 202.83512878 102.43873596 C201.83702918 101.93961751 200.83892958 101.44049907 199.81058453 100.92625582 C133.20609991 67.61941639 66.60294553 34.30991698 0 1 C0 0.67 0 0.34 0 0 Z " fill="#00247D" transform="translate(269,0)"/>
<path d="M0 0 C-2.97695895 2.35779104 -6.01613633 4.16486532 -9.38197571 5.91817111 C-10.48323384 6.49397962 -11.58449196 7.06978813 -12.71912155 7.66304538 C-13.94349832 8.29852621 -15.1679197 8.93392111 -16.39238071 9.56923962 C-17.69713051 10.24950827 -19.00172838 10.93006837 -20.30618772 11.61089382 C-23.90920175 13.49003376 -27.51470041 15.36436002 -31.12075156 17.23766381 C-34.23416375 18.85561165 -37.34633793 20.47593373 -40.45857842 22.09613393 C-50.8778925 27.51992048 -61.30267311 32.93315712 -71.72826876 38.34485663 C-74.50331738 39.78553103 -77.27813404 41.22665116 -80.05286729 42.66793287 C-127.92293855 67.53295399 -175.85588181 92.27296104 -223.88658142 116.82637024 C-224.98090298 117.38581267 -226.07522455 117.9452551 -227.20270737 118.52165034 C-251.00859635 130.69095594 -274.82296403 142.84357425 -298.64689827 154.97751353 C-310.33354097 160.92978261 -322.01843412 166.88548142 -333.70239258 172.84301758 C-335.4459441 173.73192341 -335.4459441 173.73192341 -337.22471889 174.63878694 C-374.56153641 193.67612005 -411.77266218 212.94462083 -448.92232042 232.34429455 C-487.27685923 252.37154978 -525.75143391 272.14769075 -564.38204852 291.63750788 C-569.90261524 294.42286144 -575.42182548 297.21089283 -580.94021416 300.00055885 C-582.02578092 300.54923009 -583.11134768 301.09790133 -584.2298104 301.66319897 C-599.24917693 309.26180932 -614.17590282 317.01874286 -629.04019888 324.91614208 C-654.10608591 338.23359997 -679.31056312 351.2273054 -704.85571289 363.60424805 C-706.30725104 364.30872555 -706.30725104 364.30872555 -707.78811319 365.02743493 C-795.90668914 407.68436158 -880.90574431 410.29324499 -977 400 C-974.02304105 397.64220896 -970.98386367 395.83513468 -967.61802429 394.08182889 C-966.51676616 393.50602038 -965.41550804 392.93021187 -964.28087845 392.33695462 C-963.05650168 391.70147379 -961.8320803 391.06607889 -960.60761929 390.43076038 C-959.30286949 389.75049173 -957.99827162 389.06993163 -956.69381228 388.38910618 C-953.09079825 386.50996624 -949.48529959 384.63563998 -945.87924844 382.76233619 C-942.76583625 381.14438835 -939.65366207 379.52406627 -936.54142158 377.90386607 C-926.1221075 372.48007952 -915.69732689 367.06684288 -905.27173124 361.65514337 C-902.49668262 360.21446897 -899.72186596 358.77334884 -896.94713271 357.33206713 C-849.07706145 332.46704601 -801.14411819 307.72703896 -753.11341858 283.17362976 C-752.01909702 282.61418733 -750.92477545 282.0547449 -749.79729263 281.47834966 C-725.99140365 269.30904406 -702.17703597 257.15642575 -678.35310173 245.02248647 C-666.66645903 239.07021739 -654.98156588 233.11451858 -643.29760742 227.15698242 C-641.5540559 226.26807659 -641.5540559 226.26807659 -639.77528111 225.36121306 C-602.43846359 206.32387995 -565.22733782 187.05537917 -528.07767958 167.65570545 C-489.72314077 147.62845022 -451.24856609 127.85230925 -412.61795148 108.36249212 C-407.09738476 105.57713856 -401.57817452 102.78910717 -396.05978584 99.99944115 C-394.97421908 99.45076991 -393.88865232 98.90209867 -392.7701896 98.33680103 C-377.75082307 90.73819068 -362.82409718 82.98125714 -347.95980112 75.08385792 C-322.89391409 61.76640003 -297.68943688 48.7726946 -272.14428711 36.39575195 C-270.69274896 35.69127445 -270.69274896 35.69127445 -269.21188681 34.97256507 C-181.09331086 -7.68436158 -96.09425569 -10.29324499 0 0 Z " fill="#CF142B" transform="translate(978,800)"/>
<path d="M0 0 C-2.97695895 2.35779104 -6.01613633 4.16486532 -9.38197571 5.91817111 C-10.48323384 6.49397962 -11.58449196 7.06978813 -12.71912155 7.66304538 C-13.94349832 8.29852621 -15.1679197 8.93392111 -16.39238071 9.56923962 C-17.69713051 10.24950827 -19.00172838 10.93006837 -20.30618772 11.61089382 C-23.90920175 13.49003376 -27.51470041 15.36436002 -31.12075156 17.23766381 C-34.23416375 18.85561165 -37.34633793 20.47593373 -40.45857842 22.09613393 C-50.8778925 27.51992048 -61.30267311 32.93315712 -71.72826876 38.34485663 C-74.50331738 39.78553103 -77.27813404 41.22665116 -80.05286729 42.66793287 C-127.92293855 67.53295399 -175.85588181 92.27296104 -223.88658142 116.82637024 C-224.98090298 117.38581267 -226.07522455 117.9452551 -227.20270737 118.52165034 C-251.00859635 130.69095594 -274.82296403 142.84357425 -298.64689827 154.97751353 C-310.33354097 160.92978261 -322.01843412 166.88548142 -333.70239258 172.84301758 C-335.4459441 173.73192341 -335.4459441 173.73192341 -337.22471889 174.63878694 C-374.56153641 193.67612005 -411.77266218 212.94462083 -448.92232042 232.34429455 C-487.27685923 252.37154978 -525.75143391 272.14769075 -564.38204852 291.63750788 C-569.90261524 294.42286144 -575.42182548 297.21089283 -580.94021416 300.00055885 C-582.02578092 300.54923009 -583.11134768 301.09790133 -584.2298104 301.66319897 C-599.24917693 309.26180932 -614.17590282 317.01874286 -629.04019888 324.91614208 C-654.10608591 338.23359997 -679.31056312 351.2273054 -704.85571289 363.60424805 C-706.30725104 364.30872555 -706.30725104 364.30872555 -707.78811319 365.02743493 C-795.90668914 407.68436158 -880.90574431 410.29324499 -977 400 C-974.02304105 397.64220896 -970.98386367 395.83513468 -967.61802429 394.08182889 C-966.51676616 393.50602038 -965.41550804 392.93021187 -964.28087845 392.33695462 C-963.05650168 391.70147379 -961.8320803 391.06607889 -960.60761929 390.43076038 C-959.30286949 389.75049173 -957.99827162 389.06993163 -956.69381228 388.38910618 C-953.09079825 386.50996624 -949.48529959 384.63563998 -945.87924844 382.76233619 C-942.76583625 381.14438835 -939.65366207 379.52406627 -936.54142158 377.90386607 C-926.1221075 372.48007952 -915.69732689 367.06684288 -905.27173124 361.65514337 C-902.49668262 360.21446897 -899.72186596 358.77334884 -896.94713271 357.33206713 C-849.07706145 332.46704601 -801.14411819 307.72703896 -753.11341858 283.17362976 C-752.01909702 282.61418733 -750.92477545 282.0547449 -749.79729263 281.47834966 C-725.99140365 269.30904406 -702.17703597 257.15642575 -678.35310173 245.02248647 C-666.66645903 239.07021739 -654.98156588 233.11451858 -643.29760742 227.15698242 C-641.5540559 226.26807659 -641.5540559 226.26807659 -639.77528111 225.36121306 C-602.43846359 206.32387995 -565.22733782 187.05537917 -528.07767958 167.65570545 C-489.72314077 147.62845022 -451.24856609 127.85230925 -412.61795148 108.36249212 C-407.09738476 105.57713856 -401.57817452 102.78910717 -396.05978584 99.99944115 C-394.97421908 99.45076991 -393.88865232 98.90209867 -392.7701896 98.33680103 C-377.75082307 90.73819068 -362.82409718 82.98125714 -347.95980112 75.08385792 C-322.89391409 61.76640003 -297.68943688 48.7726946 -272.14428711 36.39575195 C-270.69274896 35.69127445 -270.69274896 35.69127445 -269.21188681 34.97256507 C-181.09331086 -7.68436158 -96.09425569 -10.29324499 0 0 Z " fill="#CF142B" transform="translate(2399,0)"/>
<path d="M0 0 C175.23 0 350.46 0 531 0 C531 87.78 531 175.56 531 266 C509.17621468 255.66241748 509.17621468 255.66241748 501.66599751 251.89452267 C500.77962714 251.4519144 499.89325677 251.00930614 498.98002669 250.55328551 C496.07829694 249.1037198 493.17797542 247.65136087 490.27766418 246.19895935 C488.14945352 245.13507257 486.02115479 244.07136192 483.89277667 243.00781018 C478.701548 240.41318909 473.51123947 237.81673457 468.32133376 235.21946838 C462.0944415 232.10338152 455.86636769 228.98965931 449.63825956 225.87600351 C438.14831537 220.13168538 426.65929621 214.3855195 415.17081642 208.63827324 C403.80772203 202.95376015 392.4442091 197.27008512 381.08014488 191.58751106 C380.37164138 191.23322494 379.66313789 190.87893882 378.93316458 190.51391676 C375.33453769 188.71443413 371.73590339 186.91496629 368.13726624 185.11550415 C342.69625979 172.39395275 317.25617978 159.67054974 291.81665039 146.94604492 C267.11367173 134.58995804 242.41026986 122.23471792 217.70629883 109.88061523 C216.9438412 109.49932066 216.18138357 109.11802608 215.39582116 108.72517712 C207.73840097 104.89580772 200.08097223 101.06645545 192.42353721 97.23711571 C176.82663532 89.43739691 161.22979054 81.6375639 145.63298035 73.83766174 C144.55747762 73.29980741 144.55747762 73.29980741 143.46024756 72.75108733 C95.63920756 48.83597265 47.81950293 24.91818795 0 1 C0 0.67 0 0.34 0 0 Z " fill="#00247D" transform="translate(1869,800)"/>
<path d="M0 0 C175.23 0 350.46 0 531 0 C528.24718446 2.06461165 526.11441984 3.56776462 523.13162929 5.05895919 C521.98756369 5.63455509 521.98756369 5.63455509 520.82038566 6.2217792 C519.98729386 6.63584101 519.15420206 7.04990282 518.29586506 7.47651196 C517.40346472 7.92401577 516.51106438 8.37151958 515.59162161 8.83258411 C512.58187776 10.34062002 509.56929959 11.84290477 506.55671692 13.34526062 C504.38416198 14.43233175 502.21178222 15.51975305 500.03956336 16.60749561 C495.30662487 18.97650827 490.57244729 21.34301792 485.83716965 23.70734978 C478.79592908 27.2230662 471.75697965 30.74335086 464.7184876 34.26456595 C452.87881592 40.1875415 441.0372554 46.10673143 429.19458961 52.02371788 C417.46612478 57.88364662 405.73840025 63.7450524 394.01169395 69.60849953 C393.28289563 69.97290251 392.55409731 70.3373055 391.80321419 70.71275099 C388.84501087 72.19187311 385.88681249 73.6710051 382.92862085 75.15015057 C355.1685112 89.03065862 327.40623217 102.90682247 299.64286502 116.78081365 C274.95618252 129.11734019 250.27098112 141.45682506 225.5871582 153.79907227 C224.00176086 154.59179114 222.41636351 155.38451 220.83096615 156.17722883 C219.65530057 156.76507688 219.65530057 156.76507688 218.45588417 157.36480066 C214.51076957 159.33740835 210.56565293 161.31001196 206.62053394 163.28261089 C205.8422858 163.67174332 205.06403765 164.06087575 204.26220622 164.46180008 C183.65648266 174.76484426 163.04977947 185.06592868 142.44274157 195.3663438 C141.71014006 195.73253442 140.97753854 196.09872504 140.22273698 196.47601235 C137.27655333 197.94866004 134.33036965 199.42130769 131.38418078 200.89394497 C121.11761131 206.02564749 110.8513738 211.15801354 100.58534881 216.29080521 C87.36112096 222.90262113 74.13621902 229.51308567 60.91013841 236.12119468 C53.90885745 239.61927008 46.90812657 243.11844093 39.90817446 246.61917475 C34.69608626 249.22562705 29.48296206 251.83000212 24.2694126 254.43353043 C22.14939438 255.49262707 20.02971927 256.55241085 17.91040597 257.61291739 C15.05005229 259.04411502 12.18850239 260.47289079 9.32661152 261.90101147 C8.48649622 262.32209678 7.64638092 262.74318208 6.78080758 263.17702755 C1.11415492 266 1.11415492 266 0 266 C0 178.22 0 90.44 0 0 Z " fill="#00247D" transform="translate(0,800)"/>
<path d="M0 0 C0 87.78 0 175.56 0 266 C-175.23 266 -350.46 266 -531 266 C-528.24718446 263.93538835 -526.11441984 262.43223538 -523.13162929 260.94104081 C-522.36891889 260.55731021 -521.6062085 260.17357961 -520.82038566 259.7782208 C-519.98729386 259.36415899 -519.15420206 258.95009718 -518.29586506 258.52348804 C-516.95726455 257.85223233 -516.95726455 257.85223233 -515.59162161 257.16741589 C-512.58187776 255.65937998 -509.56929959 254.15709523 -506.55671692 252.65473938 C-504.38416198 251.56766825 -502.21178222 250.48024695 -500.03956336 249.39250439 C-495.30662487 247.02349173 -490.57244729 244.65698208 -485.83716965 242.29265022 C-478.79592908 238.7769338 -471.75697965 235.25664914 -464.7184876 231.73543405 C-452.87881592 225.8124585 -441.0372554 219.89326857 -429.19458961 213.97628212 C-417.46612478 208.11635338 -405.73840025 202.2549476 -394.01169395 196.39150047 C-393.28289563 196.02709749 -392.55409731 195.6626945 -391.80321419 195.28724901 C-388.84501087 193.80812689 -385.88681249 192.3289949 -382.92862085 190.84984943 C-355.1685112 176.96934138 -327.40623217 163.09317753 -299.64286502 149.21918635 C-274.95618252 136.88265981 -250.27098112 124.54317494 -225.5871582 112.20092773 C-224.00176086 111.40820886 -222.41636351 110.61549 -220.83096615 109.82277117 C-219.65530057 109.23492312 -219.65530057 109.23492312 -218.45588417 108.63519934 C-214.51076957 106.66259165 -210.56565293 104.68998804 -206.62053394 102.71738911 C-205.45316172 102.13369046 -205.45316172 102.13369046 -204.26220622 101.53819992 C-183.65648266 91.23515574 -163.04977947 80.93407132 -142.44274157 70.6336562 C-141.3438393 70.08437027 -141.3438393 70.08437027 -140.22273698 69.52398765 C-137.27655333 68.05133996 -134.33036965 66.57869231 -131.38418078 65.10605503 C-121.11761131 59.97435251 -110.8513738 54.84198646 -100.58534881 49.70919479 C-87.36112096 43.09737887 -74.13621902 36.48691433 -60.91013841 29.87880532 C-53.90885745 26.38072992 -46.90812657 22.88155907 -39.90817446 19.38082525 C-34.69608626 16.77437295 -29.48296206 14.16999788 -24.2694126 11.56646957 C-22.14939438 10.50737293 -20.02971927 9.44758915 -17.91040597 8.38708261 C-15.05005229 6.95588498 -12.18850239 5.52710921 -9.32661152 4.09898853 C-8.48649622 3.67790322 -7.64638092 3.25681792 -6.78080758 2.82297245 C-1.11415492 0 -1.11415492 0 0 0 Z " fill="#00247D" transform="translate(2400,134)"/>
<path d="M0 0 C21.82378532 10.33758252 21.82378532 10.33758252 29.33400249 14.10547733 C30.22037286 14.5480856 31.10674323 14.99069386 32.01997331 15.44671449 C34.92170306 16.8962802 37.82202458 18.34863913 40.72233582 19.80104065 C42.85054648 20.86492743 44.97884521 21.92863808 47.10722333 22.99218982 C52.298452 25.58681091 57.48876053 28.18326543 62.67866624 30.78053162 C68.9055585 33.89661848 75.13363231 37.01034069 81.36174044 40.12399649 C92.85168463 45.86831462 104.34070379 51.6144805 115.82918358 57.36172676 C127.19227797 63.04623985 138.5557909 68.72991488 149.91985512 74.41248894 C150.62835862 74.76677506 151.33686211 75.12106118 152.06683542 75.48608324 C155.66546231 77.28556587 159.26409661 79.08503371 162.86273376 80.88449585 C188.30374021 93.60604725 213.74382022 106.32945026 239.18334961 119.05395508 C263.88632827 131.41004196 288.58973014 143.76528208 313.29370117 156.11938477 C314.43738762 156.69132663 314.43738762 156.69132663 315.60417884 157.27482288 C323.26159903 161.10419228 330.91902777 164.93354455 338.57646279 168.76288429 C354.17336468 176.56260309 369.77020946 184.3624361 385.36701965 192.16233826 C386.08402147 192.52090781 386.80102329 192.87947737 387.53975244 193.24891267 C435.36079244 217.16402735 483.18049707 241.08181205 531 265 C531 265.33 531 265.66 531 266 C355.77 266 180.54 266 0 266 C0 178.22 0 90.44 0 0 Z " fill="#00247D" transform="translate(0,134)"/>
<path d="M0 0 C93.31651298 -21.28322294 176.25021583 -5.82127096 332.10546875 67.8125 C333.81423939 68.66942855 335.52301946 69.5263383 337.23180896 70.38322926 C379.32236171 91.50195624 421.08038103 113.24332729 462.70942105 135.25548816 C489.69923842 149.52683331 516.77493283 163.61917579 543.94018555 177.55371094 C544.84295703 178.01686827 545.74572851 178.4800256 546.6758567 178.95721801 C555.7474652 183.61109759 564.82066282 188.26187162 573.89502475 192.91037994 C592.35682705 202.36786561 610.808018 211.84596112 629.25276184 221.33666992 C630.09959007 221.77237149 630.9464183 222.20807305 631.81890799 222.6569777 C675.21267645 244.98581062 718.44635701 267.61852245 761.64239502 290.32699585 C762.24620721 290.64442161 762.85001939 290.96184738 763.47212892 291.28889211 C775.31913865 297.5176136 787.15886108 303.76011028 799 310 C799 339.7 799 369.4 799 400 C787.77431459 394.68257007 776.580989 389.36455307 765.48054218 383.80179501 C764.12824835 383.12601956 762.77586672 382.45041977 761.42340729 381.77497581 C757.756167 379.94286719 754.09015388 378.1083156 750.42436077 376.27331348 C746.41768037 374.26823694 742.40982253 372.26551628 738.40212077 370.26248223 C731.39484983 366.75987802 724.38831542 363.25580417 717.38227463 359.75074005 C706.96471121 354.53892795 696.54599101 349.32943153 686.12704012 344.12039379 C668.59666618 335.35586225 651.06722038 326.58947597 633.5383091 317.82201958 C616.191123 309.14546453 598.84352102 300.46974186 581.49536705 291.79512215 C580.41532262 291.25506556 579.33527818 290.71500897 578.22250513 290.15858703 C572.73714619 287.41573839 567.25177985 284.67290453 561.76641067 281.93007637 C522.94837222 262.5200079 484.1312608 243.1080862 445.31469727 223.69506836 C407.61301955 204.83963478 369.91092026 185.98504456 332.20825195 167.1315918 C331.04538734 166.55009373 329.88252273 165.96859566 328.68441979 165.36947643 C317.00608841 159.52965147 305.32774849 153.6898436 293.64940229 147.85004826 C269.8608384 135.95449832 246.07233157 124.05883428 222.28385925 112.1631012 C220.64334998 111.34274359 220.64334998 111.34274359 218.9696991 110.5058131 C145.97884318 74.00578749 72.9893173 37.50310226 0 1 C0 0.67 0 0.34 0 0 Z " fill="#CF142B" transform="translate(1601,800)"/>
<path d="M0 0 C11.22568541 5.31742993 22.419011 10.63544693 33.51945782 16.19820499 C34.87175165 16.87398044 36.22413328 17.54958023 37.57659271 18.22502419 C41.243833 20.05713281 44.90984612 21.8916844 48.57563923 23.72668652 C52.58231963 25.73176306 56.59017747 27.73448372 60.59787923 29.73751777 C67.60515017 33.24012198 74.61168458 36.74419583 81.61772537 40.24925995 C92.03528879 45.46107205 102.45400899 50.67056847 112.87295988 55.87960621 C130.40333382 64.64413775 147.93277962 73.41052403 165.4616909 82.17798042 C182.808877 90.85453547 200.15647898 99.53025814 217.50463295 108.20487785 C219.1246996 109.01496273 219.1246996 109.01496273 220.77749487 109.84141297 C226.26285381 112.58426161 231.74822015 115.32709547 237.23358933 118.06992363 C276.05162778 137.4799921 314.8687392 156.8919138 353.68530273 176.30493164 C391.38698045 195.16036522 429.08907974 214.01495544 466.79174805 232.8684082 C467.95461266 233.44990627 469.11747727 234.03140434 470.31558021 234.63052357 C481.99391159 240.47034853 493.67225151 246.3101564 505.35059771 252.14995174 C529.1391616 264.04550168 552.92766843 275.94116572 576.71614075 287.8368988 C577.8098136 288.38380387 578.90348645 288.93070894 580.0303009 289.4941869 C653.02115682 325.99421251 726.0106827 362.49689774 799 399 C799 399.33 799 399.66 799 400 C705.68348702 421.28322294 622.74978417 405.82127096 466.89453125 332.1875 C465.18576061 331.33057145 463.47698054 330.4736617 461.76819104 329.61677074 C419.67763829 308.49804376 377.91961897 286.75667271 336.29057895 264.74451184 C309.30076158 250.47316669 282.22506717 236.38082421 255.05981445 222.44628906 C254.15704297 221.98313173 253.25427149 221.5199744 252.3241433 221.04278199 C243.2525348 216.38890241 234.17933718 211.73812838 225.10497525 207.08962006 C206.64317295 197.63213439 188.191982 188.15403888 169.74723816 178.66333008 C168.90040993 178.22762851 168.0535817 177.79192695 167.18109201 177.3430223 C123.78732355 155.01418938 80.55364299 132.38147755 37.35760498 109.67300415 C36.75379279 109.35557839 36.14998061 109.03815262 35.52787108 108.71110789 C23.68086135 102.4823864 11.84113892 96.23988972 0 90 C0 60.3 0 30.6 0 0 Z " fill="#CF142B" transform="translate(0,0)"/>
</svg>
