<?xml version="1.0" encoding="UTF-8"?>
<svg version="1.1" xmlns="http://www.w3.org/2000/svg" width="2500" height="1892">
<path d="M0 0 C825 0 1650 0 2500 0 C2500 624.36 2500 1248.72 2500 1892 C1675 1892 850 1892 0 1892 C0 1267.64 0 643.28 0 0 Z " fill="#FFFFFF" transform="translate(0,0)"/>
<path d="M0 0 C468.27 0 936.54 0 1419 0 C1419 267.63 1419 535.26 1419 811 C950.73 811 482.46 811 0 811 C0 543.37 0 275.74 0 0 Z " fill="#D00C33" transform="translate(1081,1081)"/>
<path d="M0 0 C468.27 0 936.54 0 1419 0 C1419 267.63 1419 535.26 1419 811 C950.73 811 482.46 811 0 811 C0 543.37 0 275.74 0 0 Z " fill="#D00C33" transform="translate(1081,0)"/>
<path d="M0 0 C267.63 0 535.26 0 811 0 C811 267.63 811 535.26 811 811 C543.37 811 275.74 811 0 811 C0 543.37 0 275.74 0 0 Z " fill="#D00C33" transform="translate(0,1081)"/>
<path d="M0 0 C267.63 0 535.26 0 811 0 C811 267.63 811 535.26 811 811 C543.37 811 275.74 811 0 811 C0 543.37 0 275.74 0 0 Z " fill="#D00C33" transform="translate(0,0)"/>
</svg>
